{"title":"Juno [Jason Reitman, 2007] 1080p h264-AAC","uid":13379578,"size":1968812415,"categoryP":"video","categoryS":"hd___movies","magnet":"?xt=urn:btih:a91710509d44d5dee736005d1ac858a1f0495f75&amp;dn=Juno+%5BJason+Reitman%2C+2007%5D+1080p+h264-AAC&amp;tr=udp%3A%2F%2Ftracker.leechers-paradise.org%3A6969&amp;tr=udp%3A%2F%2Fzer0day.ch%3A1337&amp;tr=udp%3A%2F%2Fopen.demonii.com%3A1337&amp;tr=udp%3A%2F%2Ftracker.coppersurfer.tk%3A6969&amp;tr=udp%3A%2F%2Fexodus.desync.com%3A6969","seeders":1,"leechers":0,"uploader":null,"files":4,"time":1454259627,"description":"General\r\nComplete name                            : C:Juno.2007.1080p.BluRay.H264.AAC-RARBG.mp4\r\nFormat                                   : MPEG-4\r\nFormat profile                           : Base Media\r\nCodec ID                                 : isom\r\nFile size                                : 1.83 GiB\r\nDuration                                 : 1h 36mn\r\nOverall bit rate                         : 2 731 Kbps\r\nMovie name                               : Juno.2007.1080p.BluRay.H264.AAC-RARBG\r\nWriting application                      : Lavf56.16.102\r\n\r\nVideo\r\nID                                       : 1\r\nFormat                                   : AVC\r\nFormat/Info                              : Advanced Video Codec\r\nFormat profile                           :   \r\nFormat settings, CABAC                   : Yes\r\nFormat settings, ReFrames                : 4 frames\r\nCodec ID                                 : avc1\r\nCodec ID/Info                            : Advanced Video Coding\r\nDuration                                 : 1h 36mn\r\nBit rate                                 : 2 500 Kbps\r\nWidth                                    : 1 920 pixels\r\nHeight                                   : 1 038 pixels\r\nDisplay aspect ratio                     : 1.85:1\r\nFrame rate mode                          : Constant\r\nFrame rate                               : 23.976 fps\r\nColor space                              : YUV\r\nChroma subsampling                       : 4:2:0\r\nBit depth                                : 8 bits\r\nScan type                                : Progressive\r\nBits/(Pixel*Frame)                       : 0.052\r\nStream size                              : 1.68 GiB (92%)\r\nWriting library                          : x264 core 144 r2525M 40bb568\r\n\r\n\r\nAudio\r\nID                                       : 2\r\nFormat                                   : AAC\r\nFormat/Info                              : Advanced Audio Codec\r\nFormat profile                           : LC\r\nCodec ID                                 : 40\r\nDuration                                 : 1h 36mn\r\nBit rate mode                            : Constant\r\nBit rate                                 : 224 Kbps\r\nChannel(s)                               : 6 channels\r\nChannel positions                        : Front: L C R, Side: L R, LFE\r\nSampling rate                            : 48.0 KHz\r\nCompression mode                         : Lossy\r\nDelay relative to video                  : 83ms\r\nStream size                              : 154 MiB (8%)\r\nLanguage                                 : English","torrent":{"xt":"urn:btih:a91710509d44d5dee736005d1ac858a1f0495f75","amp;dn":"Juno+%5BJason+Reitman%2C+2007%5D+1080p+h264-AAC","amp;tr":["udp%3A%2F%2Ftracker.leechers-paradise.org%3A6969","udp%3A%2F%2Fzer0day.ch%3A1337","udp%3A%2F%2Fopen.demonii.com%3A1337","udp%3A%2F%2Ftracker.coppersurfer.tk%3A6969","udp%3A%2F%2Fexodus.desync.com%3A6969"],"infoHash":"a91710509d44d5dee736005d1ac858a1f0495f75","infoHashBuffer":{"type":"Buffer","data":[169,23,16,80,157,68,213,222,231,54,0,93,26,200,88,161,240,73,95,117]},"announce":[],"urlList":[]}}